<svg width="172" height="29" viewBox="0 0 34 9" fill="none" xmlns="http://www.w3.org/2000/svg">
<path d="M1.32 8.576C1.224 8.576 1.144 8.524 1.08 8.42C1.032 8.372 1 8.304 0.984 8.216C0.976 8.136 1.004 7.988 1.068 7.772C1.132 7.548 1.24 7.208 1.392 6.752C1.472 6.448 1.536 6.228 1.584 6.092C1.632 5.948 1.656 5.844 1.656 5.78C1.656 5.692 1.664 5.62 1.68 5.564C1.704 5.5 1.716 5.44 1.716 5.384C1.764 5.384 1.812 5.34 1.86 5.252C1.908 5.164 1.948 5.044 1.98 4.892C2.012 4.756 2.04 4.648 2.064 4.568C2.096 4.48 2.112 4.42 2.112 4.388C2.152 4.324 2.192 4.224 2.232 4.088C2.28 3.952 2.352 3.788 2.448 3.596C2.512 3.356 2.584 3.108 2.664 2.852C2.744 2.588 2.824 2.344 2.904 2.12C2.992 1.888 3.064 1.708 3.12 1.58C3.208 1.332 3.276 1.16 3.324 1.064C3.372 0.96 3.372 0.892 3.324 0.86C3.268 0.82 3.256 0.752 3.288 0.655999C3.32 0.56 3.408 0.452 3.552 0.331999C3.64 0.228 3.716 0.156 3.78 0.116C3.844 0.0679996 3.924 0.0439994 4.02 0.0439994C4.124 0.0439994 4.272 0.0519996 4.464 0.0679998C4.608 0.0759997 4.76 0.0799997 4.92 0.0799997C5.088 0.0799997 5.192 0.0799997 5.232 0.0799997C5.304 0.112 5.392 0.148 5.496 0.188C5.6 0.22 5.692 0.252 5.772 0.284C5.86 0.316 5.904 0.343999 5.904 0.368C5.904 0.415999 5.92 0.447999 5.952 0.464C5.992 0.472 6.032 0.48 6.072 0.487999C6.128 0.487999 6.204 0.532 6.3 0.62C6.396 0.7 6.496 0.804 6.6 0.931999C6.704 1.052 6.784 1.18 6.84 1.316C6.904 1.452 6.952 1.58 6.984 1.7C7.024 1.82 7.024 1.992 6.984 2.216C6.976 2.336 6.956 2.456 6.924 2.576C6.9 2.696 6.872 2.776 6.84 2.816C6.792 2.848 6.748 2.888 6.708 2.936C6.668 2.984 6.648 3.028 6.648 3.068C6.648 3.1 6.62 3.164 6.564 3.26C6.508 3.348 6.436 3.452 6.348 3.572C6.26 3.692 6.164 3.812 6.06 3.932C5.956 4.052 5.856 4.156 5.76 4.244C5.656 4.372 5.532 4.492 5.388 4.604C5.252 4.716 5.128 4.808 5.016 4.88C4.808 4.976 4.576 5.072 4.32 5.168C4.072 5.264 3.832 5.344 3.6 5.408C3.376 5.472 3.188 5.5 3.036 5.492C2.804 5.524 2.652 5.556 2.58 5.588C2.516 5.612 2.468 5.68 2.436 5.792C2.396 5.896 2.356 6.004 2.316 6.116C2.284 6.22 2.268 6.292 2.268 6.332C2.252 6.364 2.212 6.464 2.148 6.632C2.092 6.792 2.028 6.98 1.956 7.196C1.892 7.412 1.828 7.624 1.764 7.832C1.7 8.04 1.652 8.212 1.62 8.348C1.588 8.46 1.548 8.524 1.5 8.54C1.452 8.564 1.392 8.576 1.32 8.576ZM2.808 4.856C2.84 4.888 2.964 4.892 3.18 4.868C3.396 4.844 3.628 4.784 3.876 4.688C4.036 4.632 4.196 4.564 4.356 4.484C4.524 4.404 4.684 4.316 4.836 4.22C4.916 4.164 5.036 4.064 5.196 3.92C5.356 3.776 5.516 3.604 5.676 3.404C5.7 3.364 5.74 3.288 5.796 3.176C5.86 3.056 5.916 2.944 5.964 2.84C6.036 2.728 6.108 2.564 6.18 2.348C6.252 2.124 6.268 1.94 6.228 1.796C6.188 1.588 6.084 1.396 5.916 1.22C5.748 1.036 5.548 0.912 5.316 0.848C5.14 0.816 4.992 0.8 4.872 0.8C4.76 0.8 4.636 0.812 4.5 0.836C4.372 0.876 4.276 0.932 4.212 1.004C4.156 1.076 4.08 1.228 3.984 1.46C3.928 1.572 3.848 1.744 3.744 1.976C3.64 2.2 3.552 2.412 3.48 2.612C3.336 3.14 3.192 3.576 3.048 3.92C2.912 4.256 2.828 4.468 2.796 4.556C2.804 4.644 2.8 4.708 2.784 4.748C2.768 4.78 2.776 4.816 2.808 4.856ZM9.27113 7.976C9.19113 7.896 9.11113 7.788 9.03113 7.652C8.95113 7.508 8.88713 7.344 8.83913 7.16C8.82313 7.096 8.81513 7.008 8.81513 6.896C8.82313 6.784 8.82313 6.704 8.81513 6.656C8.79113 6.712 8.75113 6.772 8.69513 6.836C8.64713 6.892 8.59913 6.94 8.55113 6.98C8.51913 7.012 8.44713 7.076 8.33513 7.172C8.22313 7.26 8.11113 7.332 7.99913 7.388C7.73513 7.556 7.51513 7.648 7.33913 7.664C7.17113 7.68 7.01113 7.592 6.85913 7.4C6.73113 7.296 6.63913 7.18 6.58313 7.052C6.53513 6.924 6.53513 6.748 6.58313 6.524C6.59913 6.244 6.63913 5.972 6.70312 5.708C6.76713 5.436 6.89913 5.076 7.09913 4.628C7.26713 4.3 7.39513 4.06 7.48313 3.908C7.57113 3.748 7.62713 3.652 7.65113 3.62C7.77113 3.58 7.87113 3.584 7.95113 3.632C8.03113 3.672 8.07913 3.748 8.09513 3.86C8.14313 3.94 8.13513 4.076 8.07113 4.268C8.01513 4.46 7.91513 4.696 7.77113 4.976C7.65913 5.248 7.55513 5.52 7.45913 5.792C7.37113 6.064 7.31913 6.296 7.30313 6.488C7.28713 6.68 7.33513 6.796 7.44713 6.836C7.51913 6.876 7.64313 6.864 7.81913 6.8C8.00313 6.736 8.20713 6.576 8.43113 6.32C8.66313 6.064 8.88713 5.676 9.10313 5.156C9.16713 4.996 9.21513 4.856 9.24713 4.736C9.27913 4.608 9.29913 4.468 9.30713 4.316C9.29113 4.22 9.29513 4.136 9.31913 4.064C9.35113 3.984 9.41513 3.916 9.51113 3.86C9.54313 3.82 9.58713 3.784 9.64313 3.752C9.69913 3.712 9.73513 3.712 9.75113 3.752L9.94313 3.74C9.97513 3.732 9.99513 3.752 10.0031 3.8C10.0191 3.84 10.0471 3.876 10.0871 3.908C10.1751 3.98 10.1991 4.136 10.1591 4.376C10.1191 4.616 10.0071 4.952 9.82313 5.384C9.67113 5.712 9.56713 5.96 9.51113 6.128C9.46313 6.296 9.43513 6.46 9.42713 6.62C9.42713 6.764 9.45513 6.9 9.51113 7.028C9.56713 7.156 9.65513 7.272 9.77513 7.376C9.86313 7.432 9.91113 7.496 9.91913 7.568C9.93513 7.64 9.93913 7.724 9.93113 7.82C9.91513 7.892 9.86713 7.952 9.78713 8C9.71513 8.04 9.63113 8.06 9.53513 8.06C9.43913 8.06 9.35113 8.032 9.27113 7.976ZM11.5765 8.048C11.4245 7.984 11.2805 7.9 11.1445 7.796C11.0085 7.684 10.9205 7.592 10.8805 7.52C10.8805 7.448 10.8925 7.4 10.9165 7.376C10.9405 7.344 11.0085 7.332 11.1205 7.34C11.2405 7.34 11.4325 7.356 11.6965 7.388C11.7925 7.388 11.9125 7.38 12.0565 7.364C12.2005 7.348 12.3325 7.324 12.4525 7.292C12.5805 7.26 12.6525 7.22 12.6685 7.172C12.7085 7.172 12.7165 7.16 12.6925 7.136C12.6685 7.104 12.6405 7.072 12.6085 7.04C12.5765 7.04 12.5405 7.028 12.5005 7.004C12.4605 6.972 12.4245 6.956 12.3925 6.956C12.3925 6.916 12.3525 6.872 12.2725 6.824C12.2005 6.768 12.1245 6.724 12.0445 6.692C11.8685 6.548 11.7165 6.42 11.5885 6.308C11.4605 6.188 11.4125 6.108 11.4445 6.068C11.4445 6.036 11.4445 6.02 11.4445 6.02C11.4445 6.012 11.4445 6.008 11.4445 6.008C11.3885 6.008 11.3245 5.928 11.2525 5.768C11.1885 5.608 11.1565 5.464 11.1565 5.336C11.1565 5.24 11.1845 5.12 11.2405 4.976C11.2965 4.824 11.3725 4.668 11.4685 4.508C11.5645 4.348 11.6645 4.216 11.7685 4.112C11.9125 3.976 12.0925 3.832 12.3085 3.68C12.5245 3.52 12.7365 3.38 12.9445 3.26C13.1605 3.132 13.3405 3.048 13.4845 3.008C13.6285 2.952 13.7605 2.924 13.8805 2.924C14.0085 2.924 14.1205 2.952 14.2165 3.008C14.2965 3.048 14.3685 3.108 14.4325 3.188C14.5045 3.26 14.5645 3.336 14.6125 3.416C14.6685 3.488 14.7045 3.552 14.7205 3.608C14.7205 3.704 14.7125 3.812 14.6965 3.932C14.6805 4.044 14.6565 4.144 14.6245 4.232C14.6005 4.32 14.5605 4.364 14.5045 4.364C14.5045 4.364 14.4925 4.368 14.4685 4.376C14.4525 4.376 14.4445 4.396 14.4445 4.436C14.4445 4.516 14.3845 4.608 14.2645 4.712C14.1125 4.816 13.9805 4.88 13.8685 4.904C13.7565 4.92 13.6885 4.876 13.6645 4.772C13.6405 4.74 13.6245 4.712 13.6165 4.688C13.6085 4.664 13.5885 4.652 13.5565 4.652C13.5565 4.652 13.5445 4.64 13.5205 4.616C13.4965 4.592 13.4845 4.552 13.4845 4.496C13.4845 4.464 13.4965 4.436 13.5205 4.412C13.5445 4.38 13.5565 4.364 13.5565 4.364C13.5965 4.364 13.6485 4.32 13.7125 4.232C13.7765 4.136 13.8325 4.036 13.8805 3.932C13.9365 3.82 13.9645 3.744 13.9645 3.704C13.9645 3.656 13.9565 3.628 13.9405 3.62C13.9325 3.612 13.8965 3.608 13.8325 3.608C13.7205 3.656 13.5845 3.72 13.4245 3.8C13.2645 3.88 13.1125 3.96 12.9685 4.04C12.8325 4.112 12.7325 4.18 12.6685 4.244C12.6365 4.3 12.6165 4.336 12.6085 4.352C12.6005 4.36 12.5805 4.364 12.5485 4.364C12.5485 4.332 12.5205 4.348 12.4645 4.412C12.4165 4.468 12.3525 4.548 12.2725 4.652C12.2005 4.756 12.1285 4.86 12.0565 4.964C11.9925 5.06 11.9445 5.132 11.9125 5.18C11.8965 5.196 11.8765 5.244 11.8525 5.324C11.8365 5.396 11.8285 5.464 11.8285 5.528C11.7965 5.624 11.8005 5.692 11.8405 5.732C11.8805 5.764 11.9685 5.836 12.1045 5.948C12.3845 6.156 12.6045 6.328 12.7645 6.464C12.9245 6.6 13.0445 6.712 13.1245 6.8C13.2045 6.888 13.2525 6.968 13.2685 7.04C13.4125 7.28 13.4565 7.464 13.4005 7.592C13.3445 7.72 13.2085 7.832 12.9925 7.928C12.9125 7.968 12.7805 8 12.5965 8.024C12.4125 8.048 12.2245 8.06 12.0325 8.06C11.8405 8.068 11.6885 8.064 11.5765 8.048ZM18.7144 7.628C18.5144 7.724 18.3344 7.752 18.1744 7.712C18.0144 7.664 17.8864 7.556 17.7904 7.388C17.7024 7.22 17.6584 7.008 17.6584 6.752C17.6584 6.664 17.6704 6.532 17.6944 6.356C17.7264 6.18 17.7624 5.996 17.8024 5.804C17.8424 5.604 17.8864 5.432 17.9344 5.288C17.9584 5.216 17.9744 5.16 17.9824 5.12C17.9984 5.08 17.9904 5.06 17.9584 5.06C17.9264 5.06 17.8864 5.08 17.8384 5.12C17.7984 5.16 17.7664 5.192 17.7424 5.216C17.5664 5.36 17.3824 5.536 17.1904 5.744C17.0064 5.952 16.8344 6.164 16.6744 6.38C16.5144 6.588 16.3824 6.78 16.2784 6.956C16.1824 7.132 16.1344 7.26 16.1344 7.34C16.1344 7.46 16.0744 7.544 15.9544 7.592C15.8344 7.64 15.7304 7.636 15.6424 7.58C15.4904 7.492 15.3944 7.388 15.3544 7.268C15.3224 7.14 15.3184 6.928 15.3424 6.632C15.3664 6.256 15.3984 5.92 15.4384 5.624C15.4784 5.328 15.5424 5.008 15.6304 4.664C15.7264 4.312 15.8504 3.884 16.0024 3.38C16.1064 3.1 16.2024 2.836 16.2904 2.588C16.3784 2.332 16.4544 2.116 16.5184 1.94C16.5904 1.764 16.6344 1.656 16.6504 1.616C16.6904 1.576 16.7424 1.48 16.8064 1.328C16.8704 1.168 16.9264 1.008 16.9744 0.848C17.0304 0.687999 17.0584 0.592 17.0584 0.56C17.0584 0.496 17.0704 0.44 17.0944 0.392C17.1184 0.336 17.1464 0.292 17.1784 0.26C17.2104 0.227999 17.2384 0.2 17.2624 0.176C17.2864 0.152 17.2984 0.14 17.2984 0.14C17.3384 0.14 17.3864 0.152 17.4424 0.176C17.5064 0.2 17.5664 0.236 17.6224 0.284C17.6784 0.324 17.7144 0.376 17.7304 0.439999C17.7864 0.551999 17.8144 0.668 17.8144 0.788C17.8144 0.9 17.7784 1.04 17.7064 1.208C17.6424 1.376 17.5304 1.608 17.3704 1.904C17.2424 2.152 17.1264 2.408 17.0224 2.672C16.9184 2.936 16.8184 3.212 16.7224 3.5C16.6824 3.62 16.6264 3.788 16.5544 4.004C16.4904 4.22 16.4224 4.444 16.3504 4.676C16.2864 4.908 16.2304 5.116 16.1824 5.3C16.1424 5.476 16.1224 5.588 16.1224 5.636C16.1224 5.692 16.1544 5.72 16.2184 5.72C16.2824 5.712 16.3464 5.664 16.4104 5.576C16.4424 5.512 16.5104 5.432 16.6144 5.336C16.7184 5.24 16.8024 5.164 16.8664 5.108C16.9304 5.052 17.0184 4.972 17.1304 4.868C17.2424 4.764 17.3624 4.66 17.4904 4.556C17.6184 4.444 17.7384 4.352 17.8504 4.28C17.9624 4.2 18.0504 4.16 18.1144 4.16C18.2184 4.16 18.3144 4.2 18.4024 4.28C18.4904 4.352 18.5504 4.432 18.5824 4.52C18.6064 4.544 18.6304 4.576 18.6544 4.616C18.6784 4.648 18.6944 4.672 18.7024 4.688C18.7424 4.72 18.7424 4.86 18.7024 5.108C18.6704 5.348 18.5904 5.66 18.4624 6.044C18.3904 6.34 18.3304 6.592 18.2824 6.8C18.2424 7 18.2544 7.1 18.3184 7.1C18.3184 7.1 18.3584 7.076 18.4384 7.028C18.5264 6.98 18.6184 6.928 18.7144 6.872C18.9464 6.72 19.1464 6.632 19.3144 6.608C19.4904 6.576 19.5784 6.604 19.5784 6.692C19.5784 6.724 19.5664 6.756 19.5424 6.788C19.5184 6.812 19.5064 6.84 19.5064 6.872C19.5064 6.872 19.5064 6.876 19.5064 6.884C19.5064 6.884 19.5064 6.9 19.5064 6.932C19.5064 6.948 19.4544 7.012 19.3504 7.124C19.2464 7.228 19.1304 7.336 19.0024 7.448C18.8824 7.552 18.7864 7.612 18.7144 7.628ZM23.4796 8.024C23.4476 8.056 23.3596 8.068 23.2156 8.06C23.0796 8.052 22.9516 8.02 22.8316 7.964C22.8156 7.94 22.7876 7.916 22.7476 7.892C22.7076 7.86 22.6676 7.824 22.6276 7.784C22.5956 7.744 22.5676 7.708 22.5436 7.676C22.5276 7.652 22.4876 7.608 22.4236 7.544C22.3596 7.472 22.2956 7.404 22.2316 7.34C22.1676 7.276 22.1236 7.232 22.0996 7.208C22.0676 7.144 22.0036 7.064 21.9076 6.968C21.8116 6.864 21.7196 6.768 21.6316 6.68C21.5756 6.6 21.5196 6.532 21.4636 6.476C21.4076 6.42 21.3596 6.38 21.3196 6.356C21.2796 6.324 21.2476 6.308 21.2236 6.308C21.2236 6.308 21.2076 6.36 21.1756 6.464C21.1516 6.56 21.1156 6.684 21.0676 6.836C21.0276 6.98 20.9836 7.128 20.9356 7.28C20.8956 7.424 20.8636 7.54 20.8396 7.628C20.7836 7.74 20.7356 7.816 20.6956 7.856C20.6556 7.896 20.6036 7.916 20.5396 7.916C20.4516 7.916 20.3716 7.876 20.2996 7.796C20.2356 7.716 20.2036 7.6 20.2036 7.448C20.1716 7.336 20.2116 7.092 20.3236 6.716C20.4356 6.34 20.6076 5.86 20.8396 5.276C20.8716 5.156 20.9116 5.032 20.9596 4.904C21.0076 4.768 21.0476 4.656 21.0796 4.568C21.1596 4.304 21.2436 4.06 21.3316 3.836C21.4276 3.604 21.5276 3.372 21.6316 3.14C21.7356 2.9 21.8436 2.644 21.9556 2.372C22.0276 2.228 22.0796 2.124 22.1116 2.06C22.1436 1.988 22.1796 1.916 22.2196 1.844C22.2596 1.764 22.3196 1.648 22.3996 1.496C22.5756 1.168 22.7156 0.912 22.8196 0.728C22.9236 0.544 23.0036 0.408 23.0596 0.319999C23.1156 0.232 23.1636 0.168 23.2036 0.128C23.2436 0.0879998 23.2916 0.0599997 23.3476 0.0439994C23.4036 0.0279996 23.4596 0.0279996 23.5156 0.0439994C23.5716 0.0519993 23.6196 0.0799994 23.6596 0.128C23.7236 0.192 23.7596 0.26 23.7676 0.331999C23.7836 0.395999 23.7676 0.483999 23.7196 0.595999C23.6796 0.707999 23.5996 0.864 23.4796 1.064C23.4156 1.208 23.3636 1.312 23.3236 1.376C23.2836 1.44 23.2436 1.504 23.2036 1.568C23.1636 1.632 23.0996 1.744 23.0116 1.904C22.9956 1.952 22.9716 2.004 22.9396 2.06C22.9076 2.116 22.8716 2.144 22.8316 2.144C22.8316 2.168 22.8196 2.216 22.7956 2.288C22.7716 2.36 22.7436 2.428 22.7116 2.492C22.6876 2.58 22.6476 2.676 22.5916 2.78C22.5436 2.876 22.5076 2.956 22.4836 3.02C22.4436 3.116 22.3796 3.248 22.2916 3.416C22.2116 3.584 22.1316 3.748 22.0516 3.908C21.9796 4.06 21.9356 4.18 21.9196 4.268C21.9196 4.3 21.9436 4.296 21.9916 4.256C22.0396 4.216 22.0916 4.18 22.1476 4.148C22.2676 4.052 22.4036 3.956 22.5556 3.86C22.7156 3.756 22.8676 3.668 23.0116 3.596C23.1636 3.516 23.2876 3.468 23.3836 3.452C23.5036 3.42 23.5996 3.404 23.6716 3.404C23.7516 3.404 23.8316 3.42 23.9116 3.452C23.9756 3.484 24.0276 3.528 24.0676 3.584C24.1156 3.64 24.1556 3.704 24.1876 3.776C24.2276 3.848 24.2556 3.936 24.2716 4.04C24.2716 4.112 24.2436 4.232 24.1876 4.4C24.1316 4.568 24.0636 4.732 23.9836 4.892C23.9036 5.044 23.8236 5.152 23.7436 5.216C23.6876 5.24 23.6436 5.264 23.6116 5.288C23.5796 5.312 23.5636 5.324 23.5636 5.324C23.5636 5.356 23.5476 5.396 23.5156 5.444C23.4916 5.492 23.4476 5.532 23.3836 5.564C23.3516 5.596 23.3156 5.636 23.2756 5.684C23.2356 5.732 23.2156 5.768 23.2156 5.792C23.2156 5.792 23.2156 5.804 23.2156 5.828C23.2156 5.844 23.2156 5.852 23.2156 5.852C23.1836 5.852 23.1356 5.876 23.0716 5.924C23.0156 5.972 22.9436 6.028 22.8556 6.092C22.7676 6.18 22.7036 6.228 22.6636 6.236C22.6316 6.244 22.5836 6.26 22.5196 6.284C22.5036 6.3 22.4836 6.312 22.4596 6.32C22.4436 6.328 22.4236 6.336 22.3996 6.344C22.3836 6.352 22.3676 6.36 22.3516 6.368C22.3436 6.376 22.3396 6.388 22.3396 6.404C22.3396 6.436 22.3756 6.504 22.4476 6.608C22.5276 6.704 22.6196 6.812 22.7236 6.932C22.8356 7.052 22.9396 7.164 23.0356 7.268C23.1396 7.364 23.2156 7.428 23.2636 7.46C23.3436 7.492 23.3996 7.548 23.4316 7.628C23.4716 7.7 23.4956 7.776 23.5036 7.856C23.5116 7.928 23.5036 7.984 23.4796 8.024ZM22.0396 5.9C22.0796 5.868 22.1636 5.804 22.2916 5.708C22.4196 5.604 22.5596 5.492 22.7116 5.372C22.8636 5.244 22.9996 5.124 23.1196 5.012C23.2476 4.892 23.3356 4.804 23.3836 4.748C23.4396 4.692 23.4956 4.596 23.5516 4.46C23.6076 4.324 23.6156 4.216 23.5756 4.136C23.5676 4.104 23.4956 4.12 23.3596 4.184C23.2236 4.248 23.0676 4.324 22.8916 4.412C22.7556 4.492 22.5956 4.596 22.4116 4.724C22.2356 4.852 22.0676 4.988 21.9076 5.132C21.7556 5.276 21.6396 5.416 21.5596 5.552C21.5436 5.608 21.5596 5.672 21.6076 5.744C21.6556 5.816 21.7196 5.872 21.7996 5.912C21.8796 5.944 21.9596 5.94 22.0396 5.9ZM25.7864 7.652C25.7224 7.668 25.6384 7.676 25.5344 7.676C25.4304 7.668 25.3384 7.656 25.2584 7.64C25.1864 7.616 25.1504 7.592 25.1504 7.568C25.1504 7.528 25.1304 7.508 25.0904 7.508C25.0904 7.508 25.0704 7.492 25.0304 7.46C24.9984 7.428 24.9464 7.396 24.8744 7.364C24.8024 7.252 24.7664 7.132 24.7664 7.004C24.7664 6.868 24.8024 6.656 24.8744 6.368C24.8984 6.168 24.9744 5.936 25.1024 5.672C25.2384 5.4 25.4024 5.124 25.5944 4.844C25.7864 4.564 25.9864 4.312 26.1944 4.088C26.4104 3.864 26.6064 3.7 26.7824 3.596C26.8944 3.484 27.0304 3.424 27.1904 3.416C27.3504 3.408 27.5024 3.444 27.6464 3.524C27.7264 3.564 27.8064 3.628 27.8864 3.716C27.9664 3.804 28.0424 3.9 28.1144 4.004C28.1864 4.108 28.2464 4.212 28.2944 4.316C28.3184 4.404 28.3304 4.484 28.3304 4.556C28.3384 4.62 28.3384 4.7 28.3304 4.796C28.3304 4.892 28.3184 5.036 28.2944 5.228C28.2544 5.372 28.2184 5.548 28.1864 5.756C28.1624 5.964 28.1504 6.144 28.1504 6.296C28.1344 6.448 28.1504 6.556 28.1984 6.62C28.2544 6.684 28.3344 6.688 28.4384 6.632C28.5344 6.584 28.6264 6.564 28.7144 6.572C28.8024 6.572 28.8704 6.596 28.9184 6.644C28.9744 6.692 29.0024 6.764 29.0024 6.86C29.0024 6.956 28.9544 7.056 28.8584 7.16C28.7704 7.256 28.6584 7.34 28.5224 7.412C28.3944 7.476 28.2704 7.508 28.1504 7.508C28.0624 7.508 27.9784 7.456 27.8984 7.352C27.8184 7.24 27.7464 7.108 27.6824 6.956C27.6264 6.796 27.5744 6.644 27.5264 6.5L27.4544 6.224L26.9384 6.716C26.8344 6.828 26.7304 6.932 26.6264 7.028C26.5304 7.116 26.4704 7.18 26.4464 7.22C26.4064 7.292 26.3304 7.364 26.2184 7.436C26.1144 7.508 25.9704 7.58 25.7864 7.652ZM25.8224 6.944C25.9584 6.864 26.1144 6.748 26.2904 6.596C26.4664 6.436 26.6384 6.264 26.8064 6.08C26.9744 5.888 27.1144 5.712 27.2264 5.552C27.3624 5.368 27.4664 5.196 27.5384 5.036C27.6104 4.876 27.6624 4.724 27.6944 4.58C27.6624 4.492 27.6104 4.4 27.5384 4.304C27.4664 4.2 27.4024 4.144 27.3464 4.136C27.1704 4.136 26.9824 4.248 26.7824 4.472C26.5904 4.688 26.4024 4.924 26.2184 5.18C26.1864 5.22 26.1424 5.284 26.0864 5.372C26.0304 5.46 25.9744 5.544 25.9184 5.624C25.8704 5.696 25.8384 5.744 25.8224 5.768C25.7984 5.8 25.7504 5.892 25.6784 6.044C25.6144 6.188 25.5504 6.336 25.4864 6.488C25.4224 6.632 25.3904 6.728 25.3904 6.776C25.3904 6.824 25.3944 6.876 25.4024 6.932C25.4184 6.988 25.4584 7.024 25.5224 7.04C25.5864 7.056 25.6864 7.024 25.8224 6.944ZM29.8108 7.58C29.7388 7.524 29.6868 7.468 29.6548 7.412C29.6308 7.356 29.6308 7.248 29.6548 7.088C29.6788 6.864 29.7108 6.668 29.7508 6.5C29.7908 6.324 29.8388 6.124 29.8948 5.9C29.9108 5.804 29.9548 5.64 30.0268 5.408C30.1068 5.176 30.2028 4.924 30.3148 4.652C30.4268 4.38 30.5388 4.124 30.6508 3.884C30.7628 3.636 30.8588 3.452 30.9388 3.332C31.0028 3.284 31.0788 3.264 31.1668 3.272C31.2628 3.28 31.3428 3.316 31.4068 3.38C31.4948 3.452 31.5068 3.58 31.4428 3.764C31.3868 3.94 31.2668 4.22 31.0828 4.604C30.9868 4.82 30.9148 4.984 30.8668 5.096C30.8188 5.2 30.7988 5.264 30.8068 5.288C30.8148 5.304 30.8508 5.292 30.9148 5.252C30.9628 5.164 31.0508 5.064 31.1788 4.952C31.3068 4.832 31.4428 4.716 31.5868 4.604C31.7308 4.492 31.8668 4.392 31.9948 4.304C32.1228 4.216 32.2108 4.16 32.2588 4.136C32.3228 4.096 32.3948 4.064 32.4748 4.04C32.5628 4.008 32.6228 3.984 32.6548 3.968C32.8388 3.88 33.0268 3.848 33.2188 3.872C33.4108 3.896 33.5308 3.968 33.5788 4.088C33.5868 4.152 33.6108 4.2 33.6508 4.232C33.6988 4.264 33.7228 4.28 33.7228 4.28C33.7548 4.28 33.7708 4.292 33.7708 4.316C33.7788 4.34 33.7828 4.352 33.7828 4.352C33.7828 4.408 33.7388 4.444 33.6508 4.46C33.5708 4.468 33.4668 4.476 33.3388 4.484C33.2348 4.492 33.1428 4.512 33.0628 4.544C32.9828 4.576 32.8868 4.616 32.7748 4.664C32.4708 4.84 32.1788 5.012 31.8988 5.18C31.6268 5.348 31.3628 5.572 31.1068 5.852C31.0508 5.916 30.9948 5.992 30.9388 6.08C30.8828 6.168 30.8228 6.264 30.7588 6.368C30.7188 6.408 30.6788 6.496 30.6388 6.632C30.5988 6.768 30.5628 6.9 30.5308 7.028C30.5068 7.148 30.4948 7.22 30.4948 7.244C30.4948 7.244 30.4828 7.284 30.4588 7.364C30.4348 7.436 30.3948 7.508 30.3388 7.58C30.2428 7.708 30.1628 7.772 30.0988 7.772C30.0348 7.772 29.9388 7.708 29.8108 7.58Z" fill="white"/>
</svg>
